
<svg width="64" height="64" viewBox="0 0 64 64" fill="none" xmlns="http://www.w3.org/2000/svg">
  <defs>
    <filter id="eth-glow" x="-50%" y="-50%" width="200%" height="200%">
      <feGaussianBlur stdDeviation="2" result="blur"/>
      <feMerge>
        <feMergeNode in="blur"/>
        <feMergeNode in="SourceGraphic"/>
      </feMerge>
    </filter>
    <filter id="btc-glow" x="-50%" y="-50%" width="200%" height="200%">
      <feGaussianBlur stdDeviation="3" result="blur"/>
      <feMerge>
        <feMergeNode in="blur"/>
        <feMergeNode in="SourceGraphic"/>
      </feMerge>
    </filter>
  </defs>
  <g transform="translate(8, 20) scale(0.9)">
    <circle cx="16" cy="16" r="15" stroke="#8A92B2" stroke-width="2" filter="url(#eth-glow)"/>
    <path d="M16 9.33331L23.3333 16L16 22.6666L8.66667 16L16 9.33331Z" stroke="#8A92B2" stroke-width="1.5"/>
    <path d="M8.66667 16L16 22.6666V26.3333L8.66667 16Z" stroke="#8A92B2" stroke-width="1.5"/>
  </g>
  <g transform="translate(24, 12) scale(0.9)">
    <circle cx="20" cy="20" r="19" stroke="#F7931A" stroke-width="2.5" filter="url(#btc-glow)"/>
    <path d="M17.5 16.5H22.5C24.7091 16.5 26.5 18.2909 26.5 20.5C26.5 22.7091 24.7091 24.5 22.5 24.5H17.5" stroke="#F7931A" stroke-width="2" stroke-linecap="round" stroke-linejoin="round"/>
    <path d="M20.5 16.5V14.5" stroke="#F7931A" stroke-width="2" stroke-linecap="round"/>
    <path d="M20.5 24.5V27.5" stroke="#F7931A" stroke-width="2" stroke-linecap="round"/>
    <path d="M17.5 16.5V24.5" stroke="#F7931A" stroke-width="2" stroke-linecap="round"/>
  </g>
</svg>
