<svg xmlns="http://www.w3.org/2000/svg" viewBox="0 0 533.5 544.3">
  <path fill="#4285f4" d="M533.5 278.4c0-17.5-1.6-35.4-4.9-52.4H272.1v99.2h147.3c-6.4 34.7-25.6 64-54.6 83.7v69h88.4c51.7-47.6 80.3-118 80.3-199.5z"/>
  <path fill="#34a853" d="M272.1 544.3c73.9 0 135.9-24.5 181.2-66.5l-88.4-69c-24.6 16.5-56.3 26-92.8 26-71.3 0-131.7-48.1-153.4-112.9h-90v70.9c45.2 90.9 138.2 151.5 243.4 151.5z"/>
  <path fill="#fbbc04" d="M118.7 321.9c-10.9-32.7-10.9-68.2 0-100.9v-70.9h-90c-39.3 77.4-39.3 170.4 0 247.8l90-76z"/>
  <path fill="#ea4335" d="M272.1 107.7c39.9-.6 78.3 14 107.9 40.9l80.7-78.3c-48.9-45.5-112.5-71-188.6-70.3-105.3 0-198.2 60.6-243.4 151.5l90 70.9c21.7-64.8 82.1-112.9 153.4-114.7z"/>
</svg>
